
<svg width="555" height="110" viewBox="0 0 555 110" fill="none" xmlns="http://www.w3.org/2000/svg">
  <path d="M248.438 29.1873C248.438 20.4878 255.495 13.4355 264.201 13.4355V79.9393H306.368V95.7738H248.438V29.1873Z" fill="#006AEB"/>
  <path d="M318.027 95.7733V35H333.33V95.7733H318.027Z" fill="#006AEB"/>
  <path fill-rule="evenodd" clip-rule="evenodd" d="M346.814 95.633V13.4355H362.552V41.2937C368.983 36.2557 377.46 33.1945 386.75 33.1945C408.979 33.1945 423.144 46.6308 423.144 65.2043C423.144 83.7778 409.766 97.2138 386.75 97.2138C376.421 97.2138 368.034 94.3286 361.926 89.5505C360.565 93.1081 357.13 95.633 353.109 95.633H346.814ZM386.159 83.3827C400.84 83.3827 409.373 75.7524 409.373 65.2043C409.373 54.6562 400.338 47.0259 386.159 47.0259C373.339 47.0259 362.945 55.1645 362.945 65.2043C362.945 75.2436 371.478 83.3827 386.159 83.3827Z" fill="#006AEB"/>
  <path fill-rule="evenodd" clip-rule="evenodd" d="M469.502 33.1982C463.957 33.1982 458.925 34.0207 454.403 35.6718C449.886 37.2914 446.019 39.5621 442.805 42.4871C439.62 45.3818 437.149 48.8093 435.392 52.767C433.661 56.6986 432.798 60.9684 432.798 65.5687C432.798 70.5155 433.66 74.9599 435.392 78.8952C437.124 82.8295 439.641 86.1593 442.94 88.8809C446.24 91.602 450.286 93.6801 455.072 95.122L455.075 95.1229C459.889 96.5355 465.365 97.2391 471.493 97.2391C476.286 97.2391 480.969 96.8728 485.547 96.14C490.157 95.436 494.762 94.2626 499.367 92.6209L499.61 92.5343V77.5546L499.051 77.9134C497.941 78.6252 496.459 79.3453 494.597 80.0699V80.0703C492.767 80.7936 490.707 81.4609 488.414 82.0705C486.12 82.6508 483.653 83.1297 481.006 83.5074C478.364 83.8553 475.667 84.029 472.92 84.029C469.03 84.029 465.695 83.7237 462.902 83.1183C460.136 82.511 457.814 81.6612 455.927 80.575C454.04 79.4883 452.549 78.1793 451.444 76.6512C450.449 75.24 449.709 73.6968 449.224 72.0206H504.211V67.6266C504.211 62.0739 503.362 57.1523 501.66 52.8692C499.991 48.5916 497.615 44.9847 494.533 42.0555C491.482 39.1272 487.813 36.9265 483.538 35.4513C479.291 33.9476 474.608 33.1982 469.502 33.1982ZM460.756 48.0933C463.173 47.2069 466.058 46.7582 469.42 46.7582C473.002 46.7582 475.97 47.179 478.332 48.0076L478.337 48.009C480.717 48.8152 482.625 49.846 484.075 51.0922C485.529 52.3448 486.579 53.7446 487.23 55.2915L487.235 55.2951V55.2988C487.863 56.7018 488.258 58.0616 488.423 59.3798H449.206C449.501 58.2363 450.047 56.9914 450.85 55.643C451.747 54.1397 453.004 52.7266 454.632 51.4062C456.277 50.0935 458.315 48.9876 460.756 48.0933Z" fill="#006AEB"/>
  <path d="M553.395 48.6032V33.9369C548.624 33.8132 537.396 35.0311 530.442 41.9394V34.7296H515.141V95.7735H522.205C527.406 95.7735 531.621 91.5142 531.621 86.2603V79.9179L531.984 65.8036C532.222 56.6667 539.4 49.2641 548.436 48.8374L553.395 48.6032Z" fill="#006AEB"/>
  <path fill-rule="evenodd" clip-rule="evenodd" d="M121.164 0.803127C120.293 0.439872 119.297 0.554527 118.531 1.10627C117.765 1.65801 117.337 2.56845 117.4 3.51346C118.037 13.1056 120.733 21.4328 128.614 27.6225C135.534 33.0577 146.133 36.5775 161.916 38.3453C154.88 45.2442 144.942 50.5213 134.582 50.7211C129.666 50.8151 123.612 49.7288 117.54 48.3832C115.613 47.956 113.669 47.4986 111.771 47.0517C107.862 46.1318 104.154 45.2592 101.22 44.7996C100.077 44.619 98.8629 44.3657 97.5662 44.0951C94.1275 43.3774 90.1059 42.538 85.2682 42.6128C83.0074 42.6467 79.8127 42.9125 76.5171 44.1736C76.5836 41.1772 75.6841 38.3279 73.6595 36.0836C71.5766 33.7749 68.587 32.4219 65.4918 32.3547L65.4836 32.3544L65.4749 32.3543C63.2044 32.3195 61.033 33.2751 59.4818 34.7825C57.8723 36.3461 57.0187 38.4072 56.9788 40.6086V40.6111V40.6136C56.9329 43.4329 57.8264 46.1259 59.7914 48.3053C61.4293 50.1216 63.8328 51.6163 66.4725 52.0627C63.8089 55.7843 62.8182 59.7379 62.7384 63.2382C62.7324 63.4976 62.7274 63.758 62.7228 64.0192C62.6939 65.5817 62.6641 67.1721 62.3838 68.7634C62.0637 70.5807 61.4564 72.1028 60.3712 73.2363C58.7107 74.9638 56.9251 75.6843 54.4161 75.5312C54.101 75.5119 53.1924 75.2516 51.9388 74.5893C48.0575 72.5383 43.0586 72.0653 38.9286 74.6677L3.35722 97.0829L6.89168 103.634L6.89374 103.638C7.5208 104.791 8.36954 105.808 9.39069 106.63C10.41 107.45 11.5809 108.06 12.8357 108.423C13.7486 108.691 14.6948 108.826 15.6458 108.825H15.6517H15.6576C17.3173 108.816 18.9483 108.389 20.4014 107.583L20.4871 107.536L40.0666 94.7523C41.8238 93.6051 44.1865 93.6138 46.143 94.8211C52.1888 98.5514 58.6429 101.356 65.2015 101.338H65.2042H65.207C70.8831 101.312 77.1987 99.0506 82.5115 96.62C86.9153 94.6052 90.9012 92.3415 93.5354 90.8455C94.111 90.5187 94.622 90.2281 95.0587 89.9852L95.0605 89.9843L95.0623 89.9833C104.64 84.636 113.89 82.2833 124.81 82.2535C135.925 82.2238 147.655 84.4618 160.878 89.3637C161.537 89.6263 162.196 89.8898 162.855 90.1534C164.103 90.6516 165.872 91.3583 167.992 92.2049L172.971 94.194C176.24 95.4998 179.892 96.9592 183.567 98.4268C194.939 102.97 206.532 107.599 207.468 107.966L209.75 108.859C210.634 107.147 211.52 105.472 212.065 103.615C212.553 101.951 213.045 99.4365 212.407 96.9917C210.944 91.3941 207.062 87.5872 201.398 85.5609C200.449 85.2538 199.499 84.9513 198.55 84.6415C194.031 83.1665 189.516 81.6504 185.087 79.916C182.866 79.0457 181.209 78.3201 180.413 77.8238C176.245 75.225 175.529 71.6321 176.102 68.1827C176.69 64.6384 179.137 62.5773 182.112 62.5773C188.239 62.6282 193.223 61.5978 196.862 59.566C200.518 57.5242 202.901 54.7146 204.479 51.7973C207.583 45.3307 205.434 37.8552 201.632 32.6359C198.931 28.9257 193.229 22.9008 183.377 21.6469C181.077 21.3397 177.533 21.4725 175.099 21.5668C172.405 21.6713 172.492 21.2312 169.949 20.3302L121.164 0.803127ZM207.135 98.3809C207.381 99.3233 207.247 100.583 206.898 101.851C200.786 99.414 185.205 93.1894 174.312 88.838L174.278 88.8242C170.452 87.2957 166.644 85.6979 162.791 84.2372C149.072 79.1483 136.685 76.7467 124.796 76.7788C112.977 76.8104 102.819 79.3894 92.4148 85.1979C91.9323 85.466 91.3869 85.7758 90.7847 86.1173C88.14 87.6188 84.4141 89.7336 80.2525 91.6375C75.0906 93.9988 69.6543 95.8413 65.1859 95.8628C60.1294 95.8761 54.7225 93.6894 48.9955 90.1557C45.4204 87.9497 40.7826 87.7554 37.0968 90.1616L17.6913 102.831C17.0574 103.167 16.3521 103.345 15.6346 103.35C15.2031 103.35 14.7737 103.288 14.3594 103.167L14.354 103.165L14.3484 103.164C13.7835 103 13.2566 102.726 12.798 102.357C12.3405 101.989 11.9601 101.533 11.6788 101.017L11.6769 101.014L10.5856 98.991L41.8245 79.306C43.9156 77.9883 46.7833 78.0511 49.4014 79.4348C50.8375 80.1938 52.5846 80.9042 54.085 80.9959C58.1768 81.2461 61.5188 79.9243 64.2929 77.0382L64.2942 77.0368L64.2956 77.0354C66.406 74.8336 67.3243 72.1354 67.7504 69.7181C68.1118 67.6648 68.1476 65.5986 68.1737 64.0554C68.1779 63.8116 68.182 63.5806 68.187 63.3652C68.2728 59.5876 69.7892 54.8727 75.3286 50.9494C78.6417 48.6046 82.512 48.1297 85.3507 48.0871C89.5531 48.0225 92.6575 48.6728 95.8898 49.3503C97.3241 49.6514 98.7836 49.9571 100.376 50.2083L100.379 50.2087C103.112 50.6368 106.469 51.4279 110.235 52.3148C112.18 52.7731 114.233 53.2571 116.366 53.7296C122.451 55.0785 129.063 56.3027 134.686 56.195C148.922 55.9209 161.988 47.521 169.714 37.855C170.345 37.0648 170.491 35.9889 170.092 35.0582C169.693 34.1275 168.814 33.4943 167.81 33.4125C149.265 31.9024 138.368 28.3337 131.971 23.3093C126.878 19.3092 124.383 14.1756 123.332 7.63601L167.945 25.3529C171.246 26.5186 171.6 26.9235 175.099 26.9235C177.609 26.9237 180.187 26.7523 182.684 27.0777C190.444 28.0625 194.971 32.7616 197.232 35.8658C201.43 41.627 201.43 46.3367 199.694 49.1798C198.529 51.3307 196.833 53.318 194.214 54.7801C191.576 56.2528 187.827 57.2913 182.412 57.2464H182.409C175.959 57.2464 171.751 62.0026 170.87 67.4182C170.092 72.2069 171.666 79.1057 177.597 82.5111C178.871 83.2422 180.916 84.1584 183.107 85.0168C187.632 86.7897 192.247 88.3411 196.866 89.8486C197.781 90.1479 198.699 90.444 199.617 90.735C203.818 92.2503 206.201 94.8023 207.135 98.3809ZM63.2705 38.7181C63.9484 38.0597 64.8419 37.7731 65.768 37.8474C67.2472 37.9715 68.6241 38.6553 69.6213 39.7602C70.6951 40.9503 71.0648 42.4114 71.0689 43.9786C71.073 45.4905 69.8562 46.7194 68.3517 46.7235C66.6161 46.7281 64.9919 45.9178 63.8305 44.6295C62.8737 43.5685 62.4031 42.2575 62.4279 40.7058C62.443 39.9067 62.7324 39.241 63.2705 38.7181Z" fill="#006AEB"/>
  <path d="M332.949 12.959H317.143V26.0084H332.949V12.959Z" fill="#006AEB"/>
</svg>
